<svg xmlns="http://www.w3.org/2000/svg" width="48" height="48" viewBox="0 0 48 48">
    <defs>
        <radialGradient id="a" cx="0%" cy="100%" r="134.005%" fx="0%" fy="100%">
            <stop offset="0%" stop-color="#FABC59"/>
            <stop offset="26.431%" stop-color="#E75851"/>
            <stop offset="48.572%" stop-color="#C83F75"/>
            <stop offset="75.2%" stop-color="#9537B3"/>
            <stop offset="100%" stop-color="#4C68D6"/>
        </radialGradient>
    </defs>
    <g fill="none" fill-rule="evenodd">
        <path fill="url(#a)" d="M0 0h48v48H0z"/>
        <path fill="#FFF" d="M24 14.162c3.204 0 3.584.012 4.849.07 1.17.054 1.805.249 2.228.413.56.218.96.478 1.38.898.42.42.68.82.898 1.38.164.423.36 1.058.413 2.228.058 1.265.07 1.645.07 4.849s-.012 3.584-.07 4.849c-.054 1.17-.249 1.805-.413 2.228-.218.56-.478.96-.898 1.38-.42.42-.82.68-1.38.898-.423.164-1.058.36-2.228.413-1.265.058-1.645.07-4.849.07s-3.584-.012-4.849-.07c-1.17-.053-1.805-.249-2.228-.413a3.718 3.718 0 0 1-1.38-.898c-.42-.42-.68-.82-.898-1.38-.164-.423-.36-1.058-.413-2.228-.058-1.265-.07-1.645-.07-4.849s.012-3.584.07-4.849c.053-1.17.249-1.805.413-2.228.218-.56.478-.96.898-1.38.42-.42.82-.68 1.38-.898.423-.164 1.058-.36 2.228-.413 1.265-.058 1.645-.07 4.849-.07M24 12c-3.26 0-3.668.014-4.948.072-1.277.059-2.15.261-2.913.558a5.882 5.882 0 0 0-2.125 1.384 5.882 5.882 0 0 0-1.384 2.126c-.297.763-.5 1.635-.558 2.912C12.014 20.332 12 20.741 12 24c0 3.26.014 3.668.072 4.948.058 1.277.261 2.15.558 2.913.307.789.717 1.458 1.384 2.125a5.882 5.882 0 0 0 2.125 1.384c.764.297 1.636.5 2.913.558 1.28.058 1.689.072 4.948.072 3.259 0 3.668-.014 4.948-.072 1.277-.058 2.15-.261 2.912-.558a5.882 5.882 0 0 0 2.126-1.384 5.882 5.882 0 0 0 1.384-2.125c.297-.764.5-1.636.558-2.913.058-1.28.072-1.689.072-4.948 0-3.259-.014-3.668-.072-4.948-.059-1.277-.261-2.15-.558-2.912a5.882 5.882 0 0 0-1.384-2.126 5.882 5.882 0 0 0-2.126-1.384c-.763-.297-1.635-.5-2.912-.558C27.668 12.014 27.259 12 24 12m.024 5.857a6.167 6.167 0 1 0 0 12.334 6.167 6.167 0 0 0 0-12.334zm0 10.17a4.003 4.003 0 1 1 0-8.006 4.003 4.003 0 0 1 0 8.006zM31.81 17.57a1.429 1.429 0 1 1-2.858 0 1.429 1.429 0 0 1 2.858 0"/>
    </g>
</svg>
